<?xml version="1.0" encoding="UTF-8" standalone="no"?>
<svg viewBox="0 0 380.0 319.0" xmlns="http://www.w3.org/2000/svg">
    <style>
        <![CDATA[
/* ----------------------------------------------------------------------- */
/* File: tautologies.css ------------------------------------------------- */
.sld-out .sld-arrow-in {visibility: hidden}
.sld-in .sld-arrow-out {visibility: hidden}
.sld-closed .sld-sw-open {visibility: hidden}
.sld-open .sld-sw-closed {visibility: hidden}
.sld-hidden-node {visibility: hidden}
.sld-top-feeder .sld-label {dominant-baseline: auto}
.sld-bottom-feeder .sld-label {dominant-baseline: hanging}
.sld-arrow-p .sld-label {dominant-baseline: middle}
.sld-arrow-q .sld-label {dominant-baseline: middle}
/* ----------------------------------------------------------------------- */
/* File: topologicalBaseVoltages.css ------------------------------------- */
.sld-disconnected {--sld-vl-color: #808080}
.sld-vl300to500-0 {--sld-vl-color: #FF0000}
.sld-vl300to500-1 {--sld-vl-color: #7F6C00}
.sld-vl300to500-2 {--sld-vl-color: #F6B2FF}
.sld-vl300to500-3 {--sld-vl-color: #996700}
.sld-vl300to500-4 {--sld-vl-color: #FF85EB}
.sld-vl300to500-5 {--sld-vl-color: #B25B00}
.sld-vl300to500-6 {--sld-vl-color: #FF59B5}
.sld-vl300to500-7 {--sld-vl-color: #CC4400}
.sld-vl300to500-8 {--sld-vl-color: #FF2C67}
.sld-vl300to500-9 {--sld-vl-color: #E52600}
.sld-vl180to300-0 {--sld-vl-color: #218B21}
.sld-vl180to300-1 {--sld-vl-color: #0D4940}
.sld-vl180to300-2 {--sld-vl-color: #DFDAB9}
.sld-vl180to300-3 {--sld-vl-color: #105640}
.sld-vl180to300-4 {--sld-vl-color: #C2CB92}
.sld-vl180to300-5 {--sld-vl-color: #14643C}
.sld-vl180to300-6 {--sld-vl-color: #95B66B}
.sld-vl180to300-7 {--sld-vl-color: #187036}
.sld-vl180to300-8 {--sld-vl-color: #5FA046}
.sld-vl180to300-9 {--sld-vl-color: #1C7E2D}
.sld-vl120to180-0 {--sld-vl-color: #00AFAE}
.sld-vl120to180-1 {--sld-vl-color: #000D58}
.sld-vl120to180-2 {--sld-vl-color: #B8E7B2}
.sld-vl120to180-3 {--sld-vl-color: #002169}
.sld-vl120to180-4 {--sld-vl-color: #85D993}
.sld-vl120to180-5 {--sld-vl-color: #003C7B}
.sld-vl120to180-6 {--sld-vl-color: #59CB8B}
.sld-vl120to180-7 {--sld-vl-color: #005C8C}
.sld-vl120to180-8 {--sld-vl-color: #2CBD94}
.sld-vl120to180-9 {--sld-vl-color: #00839E}
.sld-vl70to120-0 {--sld-vl-color: #CC5500}
.sld-vl70to120-1 {--sld-vl-color: #4A6600}
.sld-vl70to120-2 {--sld-vl-color: #EFB2DD}
.sld-vl70to120-3 {--sld-vl-color: #6E7A00}
.sld-vl70to120-4 {--sld-vl-color: #E685AE}
.sld-vl70to120-5 {--sld-vl-color: #8E8400}
.sld-vl70to120-6 {--sld-vl-color: #DD596B}
.sld-vl70to120-7 {--sld-vl-color: #A37B00}
.sld-vl70to120-8 {--sld-vl-color: #D4432C}
.sld-vl70to120-9 {--sld-vl-color: #B76B00}
.sld-vl50to70-0 {--sld-vl-color: #A020EF}
.sld-vl50to70-1 {--sld-vl-color: #7F0848}
.sld-vl50to70-2 {--sld-vl-color: #B7DBFE}
.sld-vl50to70-3 {--sld-vl-color: #960C6D}
.sld-vl50to70-4 {--sld-vl-color: #8DA6FE}
.sld-vl50to70-5 {--sld-vl-color: #AD109A}
.sld-vl50to70-6 {--sld-vl-color: #6F66FB}
.sld-vl50to70-7 {--sld-vl-color: #BC14C4}
.sld-vl50to70-8 {--sld-vl-color: #7F42F6}
.sld-vl50to70-9 {--sld-vl-color: #B11AD9}
.sld-vl30to50-0 {--sld-vl-color: #FF8290}
.sld-vl30to50-1 {--sld-vl-color: #7F6F41}
.sld-vl30to50-2 {--sld-vl-color: #F6D9FF}
.sld-vl30to50-3 {--sld-vl-color: #99784E}
.sld-vl30to50-4 {--sld-vl-color: #FFC3FB}
.sld-vl30to50-5 {--sld-vl-color: #B27D5B}
.sld-vl30to50-6 {--sld-vl-color: #FFADE3}
.sld-vl30to50-7 {--sld-vl-color: #CC7E68}
.sld-vl30to50-8 {--sld-vl-color: #FF97BF}
.sld-vl30to50-9 {--sld-vl-color: #E57B75}
.sld-vl0to30-0 {--sld-vl-color: #AAAE27}
.sld-vl0to30-1 {--sld-vl-color: #195B0F}
.sld-vl0to30-2 {--sld-vl-color: #EABABE}
.sld-vl0to30-3 {--sld-vl-color: #2D6C13}
.sld-vl0to30-4 {--sld-vl-color: #DDA193}
.sld-vl0to30-5 {--sld-vl-color: #477D17}
.sld-vl0to30-6 {--sld-vl-color: #CE9A6E}
.sld-vl0to30-7 {--sld-vl-color: #648D1C}
.sld-vl0to30-8 {--sld-vl-color: #BEA04A}
.sld-vl0to30-9 {--sld-vl-color: #869D22}
/* ----------------------------------------------------------------------- */
/* File : highlightLineStates.css ---------------------------------------- */
.sld-feeder-disconnected {stroke: black}
.sld-feeder-connected-disconnected {stroke-dasharray: 3,3}
.sld-feeder-disconnected-connected {stroke: black; stroke-dasharray: 3,3}
/* ----------------------------------------------------------------------- */
/* File : components.css ------------------------------------------------- */
/* Stroke black */
.sld-disconnector {stroke-width: 3; stroke: black; fill: none}
/* Stroke blue */
.sld-breaker {stroke-width: 2; stroke: blue; fill:white}
.sld-load-break-switch {stroke: blue; fill: white}
/* Stroke --sld-vl-color with fallback black */
.sld-bus-connection {fill: var(--sld-vl-color, black)}
.sld-cell-shape-flat .sld-bus-connection {visibility: hidden}
.sld-busbar-section {stroke: var(--sld-vl-color, black); stroke-width: 3; fill: none}
/* Stroke --sld-vl-color with fallback red */
.sld-wire {stroke: var(--sld-vl-color, #c80000); fill: none}
/* Stroke --sld-vl-color with fallback blue */
.sld-load {stroke: var(--sld-vl-color, blue); fill: none}
.sld-generator {stroke: var(--sld-vl-color, blue); fill: none}
.sld-two-wt {stroke: var(--sld-vl-color, blue); fill: none}
.sld-three-wt {stroke: var(--sld-vl-color, blue); fill: none}
.sld-winding {stroke: var(--sld-vl-color, blue); fill: none}
.sld-capacitor {stroke: var(--sld-vl-color, blue); fill: none}
.sld-inductor {stroke: var(--sld-vl-color, blue); fill: none}
.sld-pst {stroke: var(--sld-vl-color, blue); fill: none}
.sld-pst-arrow {stroke: black; fill: none}
.sld-svc {stroke: var(--sld-vl-color, blue); fill: none}
.sld-vsc {stroke: var(--sld-vl-color, blue); font-size: 7.43px; fill: none}
/* Stroke none & fill: --sld-vl-color */
.sld-node-infos {stroke: none; fill: var(--sld-vl-color, black)}
/* Stroke none & fill: black */
.sld-label {stroke: none; fill: black; font: 8px "Verdana"}
.sld-graph-label {stroke: none; fill: black; font: 12px "Verdana"}
.sld-node {stroke: none; fill: black}
.sld-flash {stroke: none; fill: black}
.sld-lock {stroke: none; fill: black}
/* Specific */
.sld-grid {stroke: #003700; stroke-dasharray: 1,10}
.sld-arrow-p {fill:black}
.sld-arrow-q {fill:blue}
.sld-frame {fill: var(--sld-background-color, transparent)}
/* Stroke maroon for fictitious switch */
.sld-breaker.sld-fictitious {stroke: maroon}
.sld-disconnector.sld-fictitious {stroke: maroon}
.sld-load-break-switch.sld-fictitious {stroke: maroon}
.sld-busbar-section.sld-fictitious {stroke: var(--sld-vl-color, #c80000); stroke-width: 1}

]]>
    </style>
    <rect class="sld-frame" height="100%" width="100%"/>
    <g>
        <g class="sld-busbar-section sld-disconnected" id="idVLbbs11" transform="translate(52.5,164.0)">
            <line x1="0" x2="25.0" y1="0" y2="0"/>
            <text class="sld-label" id="VLbbs11_NW_LABEL" x="-5.0" y="-5.0">VLbbs11</text>
        </g>
        <g class="sld-busbar-section sld-disconnected" id="idVLbbs21" transform="translate(52.5,189.0)">
            <line x1="0" x2="25.0" y1="0" y2="0"/>
            <text class="sld-label" id="VLbbs21_NW_LABEL" x="-5.0" y="-5.0">VLbbs21</text>
        </g>
        <g class="sld-busbar-section sld-disconnected" id="idVLbbs31" transform="translate(52.5,214.0)">
            <line x1="0" x2="25.0" y1="0" y2="0"/>
            <text class="sld-label" id="VLbbs31_NW_LABEL" x="-5.0" y="-5.0">VLbbs31</text>
        </g>
        <g class="sld-busbar-section sld-disconnected" id="idVLbbs41" transform="translate(52.5,239.0)">
            <line x1="0" x2="25.0" y1="0" y2="0"/>
            <text class="sld-label" id="VLbbs41_NW_LABEL" x="-5.0" y="-5.0">VLbbs41</text>
        </g>
        <g class="sld-busbar-section sld-disconnected" id="idVLbbs12" transform="translate(152.5,164.0)">
            <line x1="0" x2="25.0" y1="0" y2="0"/>
            <text class="sld-label" id="VLbbs12_NW_LABEL" x="-5.0" y="-5.0">VLbbs12</text>
        </g>
        <g class="sld-busbar-section sld-disconnected" id="idVLbbs22" transform="translate(152.5,189.0)">
            <line x1="0" x2="25.0" y1="0" y2="0"/>
            <text class="sld-label" id="VLbbs22_NW_LABEL" x="-5.0" y="-5.0">VLbbs22</text>
        </g>
        <g class="sld-busbar-section sld-disconnected" id="idVLbbs32" transform="translate(152.5,214.0)">
            <line x1="0" x2="25.0" y1="0" y2="0"/>
            <text class="sld-label" id="VLbbs32_NW_LABEL" x="-5.0" y="-5.0">VLbbs32</text>
        </g>
        <g class="sld-busbar-section sld-disconnected" id="idVLbbs42" transform="translate(152.5,239.0)">
            <line x1="0" x2="25.0" y1="0" y2="0"/>
            <text class="sld-label" id="VLbbs42_NW_LABEL" x="-5.0" y="-5.0">VLbbs42</text>
        </g>
        <g class="sld-busbar-section sld-disconnected" id="idVLbbs13" transform="translate(252.5,164.0)">
            <line x1="0" x2="75.0" y1="0" y2="0"/>
            <text class="sld-label" id="VLbbs13_NW_LABEL" x="-5.0" y="-5.0">VLbbs13</text>
        </g>
        <g class="sld-busbar-section sld-disconnected" id="idVLbbs23" transform="translate(252.5,189.0)">
            <line x1="0" x2="75.0" y1="0" y2="0"/>
            <text class="sld-label" id="VLbbs23_NW_LABEL" x="-5.0" y="-5.0">VLbbs23</text>
        </g>
        <g class="sld-busbar-section sld-disconnected" id="idVLbbs33" transform="translate(252.5,214.0)">
            <line x1="0" x2="75.0" y1="0" y2="0"/>
            <text class="sld-label" id="VLbbs33_NW_LABEL" x="-5.0" y="-5.0">VLbbs33</text>
        </g>
        <g class="sld-busbar-section sld-disconnected" id="idVLbbs43" transform="translate(252.5,239.0)">
            <line x1="0" x2="75.0" y1="0" y2="0"/>
            <text class="sld-label" id="VLbbs43_NW_LABEL" x="-5.0" y="-5.0">VLbbs43</text>
        </g>
        <g class="sld-intern-cell sld-cell-shape-crossover" id="idINTERN_32_0">
            <g class="sld-wire sld-disconnected" id="_95_VL_95_NEW_95_DISCONNECTOR0_95_INTERNAL_95_VL_95_20">
                <polyline points="65.0,164.0,65.0,124.0"/>
            </g>
            <g class="sld-wire sld-disconnected" id="_95_VL_95_INTERNAL_95_VL_95_20_95_NEW_95_BREAKER">
                <polyline points="65.0,124.0,80.0,124.0"/>
            </g>
            <g class="sld-wire sld-disconnected" id="_95_VL_95_INTERNAL_95_VL_95_20_95_NEW_95_DISCONNECTOR120">
                <polyline points="65.0,124.0,65.0,189.0"/>
            </g>
            <g class="sld-wire sld-disconnected" id="_95_VL_95_INTERNAL_95_VL_95_20_95_NEW_95_DISCONNECTOR220">
                <polyline points="65.0,124.0,65.0,214.0"/>
            </g>
            <g class="sld-wire sld-disconnected" id="_95_VL_95_INTERNAL_95_VL_95_20_95_NEW_95_DISCONNECTOR320">
                <polyline points="65.0,124.0,65.0,239.0"/>
            </g>
            <g class="sld-wire sld-disconnected" id="_95_VL_95_NEW_95_BREAKER_95_INTERNAL_95_VL_95_21">
                <polyline points="100.0,124.0,165.0,124.0"/>
            </g>
            <g class="sld-wire sld-disconnected" id="_95_VL_95_NEW_95_DISCONNECTOR6_95_INTERNAL_95_VL_95_21">
                <polyline points="165.0,214.0,165.0,124.0"/>
            </g>
            <g class="sld-wire sld-disconnected" id="_95_VL_95_INTERNAL_95_VL_95_21_95_NEW_95_DISCONNECTOR421">
                <polyline points="165.0,124.0,165.0,164.0"/>
            </g>
            <g class="sld-wire sld-disconnected" id="_95_VL_95_INTERNAL_95_VL_95_21_95_NEW_95_DISCONNECTOR521">
                <polyline points="165.0,124.0,165.0,189.0"/>
            </g>
            <g class="sld-wire sld-disconnected" id="_95_VL_95_INTERNAL_95_VL_95_21_95_NEW_95_DISCONNECTOR721">
                <polyline points="165.0,124.0,165.0,239.0"/>
            </g>
            <g class="sld-disconnector sld-closed sld-disconnected" id="idNEW_95_DISCONNECTOR0" transform="translate(61.0,160.0)">
                <path class="sld-sw-closed" d="M0,0 8,8 M8,0 0,8"/>
                <path class="sld-sw-open" d="M8,0 0,8"/>
            </g>
            <g class="sld-node sld-hidden-node sld-fictitious sld-disconnected" id="idINTERNAL_95_VL_95_20" transform="translate(61.0,120.0)">
                <circle cx="4" cy="4" r="4"/>
            </g>
            <g class="sld-breaker sld-closed sld-disconnected" id="idNEW_95_BREAKER" transform="translate(80.0,114.0)">
                <path class="sld-sw-closed" d="M1,1 V19 H19 V1z M10,5 V15" transform="rotate(90.0,10.0,10.0)"/>
                <path class="sld-sw-open" d="M1,1 V19 H19 V1z M5,10 H15" transform="rotate(90.0,10.0,10.0)"/>
            </g>
            <g class="sld-node sld-hidden-node sld-fictitious sld-disconnected" id="idINTERNAL_95_VL_95_21" transform="translate(161.0,120.0)">
                <circle cx="4" cy="4" r="4"/>
            </g>
            <g class="sld-disconnector sld-closed sld-disconnected" id="idNEW_95_DISCONNECTOR6" transform="translate(161.0,210.0)">
                <path class="sld-sw-closed" d="M0,0 8,8 M8,0 0,8"/>
                <path class="sld-sw-open" d="M8,0 0,8"/>
            </g>
            <g class="sld-disconnector sld-open sld-disconnected" id="idNEW_95_DISCONNECTOR421" transform="translate(161.0,160.0)">
                <path class="sld-sw-closed" d="M0,0 8,8 M8,0 0,8"/>
                <path class="sld-sw-open" d="M8,0 0,8"/>
            </g>
            <g class="sld-disconnector sld-open sld-disconnected" id="idNEW_95_DISCONNECTOR521" transform="translate(161.0,185.0)">
                <path class="sld-sw-closed" d="M0,0 8,8 M8,0 0,8"/>
                <path class="sld-sw-open" d="M8,0 0,8"/>
            </g>
            <g class="sld-disconnector sld-open sld-disconnected" id="idNEW_95_DISCONNECTOR721" transform="translate(161.0,235.0)">
                <path class="sld-sw-closed" d="M0,0 8,8 M8,0 0,8"/>
                <path class="sld-sw-open" d="M8,0 0,8"/>
            </g>
            <g class="sld-disconnector sld-open sld-disconnected" id="idNEW_95_DISCONNECTOR120" transform="translate(61.0,185.0)">
                <path class="sld-sw-closed" d="M0,0 8,8 M8,0 0,8"/>
                <path class="sld-sw-open" d="M8,0 0,8"/>
            </g>
            <g class="sld-disconnector sld-open sld-disconnected" id="idNEW_95_DISCONNECTOR220" transform="translate(61.0,210.0)">
                <path class="sld-sw-closed" d="M0,0 8,8 M8,0 0,8"/>
                <path class="sld-sw-open" d="M8,0 0,8"/>
            </g>
            <g class="sld-disconnector sld-open sld-disconnected" id="idNEW_95_DISCONNECTOR320" transform="translate(61.0,235.0)">
                <path class="sld-sw-closed" d="M0,0 8,8 M8,0 0,8"/>
                <path class="sld-sw-open" d="M8,0 0,8"/>
            </g>
        </g>
        <g class="sld-intern-cell sld-cell-shape-flat" id="idINTERN_32_1">
            <g class="sld-wire sld-disconnected" id="_95_VL_95_VLbbs11_95_BUSCO_95_VLsw_95_DISCONNECTOR11">
                <polyline points="77.5,164.0,90.0,164.0"/>
            </g>
            <g class="sld-wire sld-disconnected" id="_95_VL_95_INTERNAL_95_VL_95_VLsw_95_DISCONNECTOR11_95_VLsw_95_DISCONNECTOR11">
                <polyline points="90.0,164.0,115.0,164.0"/>
            </g>
            <g class="sld-wire sld-disconnected" id="_95_VL_95_VLsw_95_DISCONNECTOR11_95_INTERNAL_95_VL_95_VLsw_95_DISCONNECTOR11">
                <polyline points="115.0,164.0,140.0,164.0"/>
            </g>
            <g class="sld-wire sld-disconnected" id="_95_VL_95_BUSCO_95_VLsw_95_DISCONNECTOR11_95_VLbbs12">
                <polyline points="140.0,164.0,152.5,164.0"/>
            </g>
            <g class="sld-bus-connection sld-fictitious sld-disconnected" id="idBUSCO_95_VLsw_95_DISCONNECTOR11" transform="translate(86.0,160.0)">
                <circle cx="4" cy="4" r="4"/>
            </g>
            <g class="sld-node sld-hidden-node sld-fictitious sld-disconnected" id="idINTERNAL_95_VL_95_VLsw_95_DISCONNECTOR11" transform="translate(86.0,160.0)">
                <circle cx="4" cy="4" r="4"/>
            </g>
            <g class="sld-disconnector sld-closed sld-disconnected" id="idVLsw_95_DISCONNECTOR11" transform="translate(111.0,160.0)">
                <path class="sld-sw-closed" d="M0,0 8,8 M8,0 0,8"/>
                <path class="sld-sw-open" d="M8,0 0,8"/>
            </g>
            <g class="sld-node sld-hidden-node sld-fictitious sld-disconnected" id="idINTERNAL_95_VL_95_VLsw_95_DISCONNECTOR11" transform="translate(136.0,160.0)">
                <circle cx="4" cy="4" r="4"/>
            </g>
            <g class="sld-bus-connection sld-fictitious sld-disconnected" id="idBUSCO_95_VLsw_95_DISCONNECTOR11" transform="translate(136.0,160.0)">
                <circle cx="4" cy="4" r="4"/>
            </g>
        </g>
        <g class="sld-intern-cell sld-cell-shape-flat" id="idINTERN_32_2">
            <g class="sld-wire sld-disconnected" id="_95_VL_95_VLbbs21_95_BUSCO_95_VLsw_95_DISCONNECTOR21">
                <polyline points="77.5,189.0,90.0,189.0"/>
            </g>
            <g class="sld-wire sld-disconnected" id="_95_VL_95_INTERNAL_95_VL_95_VLsw_95_DISCONNECTOR21_95_VLsw_95_DISCONNECTOR21">
                <polyline points="90.0,189.0,115.0,189.0"/>
            </g>
            <g class="sld-wire sld-disconnected" id="_95_VL_95_VLsw_95_DISCONNECTOR21_95_INTERNAL_95_VL_95_VLsw_95_DISCONNECTOR21">
                <polyline points="115.0,189.0,140.0,189.0"/>
            </g>
            <g class="sld-wire sld-disconnected" id="_95_VL_95_BUSCO_95_VLsw_95_DISCONNECTOR21_95_VLbbs22">
                <polyline points="140.0,189.0,152.5,189.0"/>
            </g>
            <g class="sld-bus-connection sld-fictitious sld-disconnected" id="idBUSCO_95_VLsw_95_DISCONNECTOR21" transform="translate(86.0,185.0)">
                <circle cx="4" cy="4" r="4"/>
            </g>
            <g class="sld-node sld-hidden-node sld-fictitious sld-disconnected" id="idINTERNAL_95_VL_95_VLsw_95_DISCONNECTOR21" transform="translate(86.0,185.0)">
                <circle cx="4" cy="4" r="4"/>
            </g>
            <g class="sld-disconnector sld-closed sld-disconnected" id="idVLsw_95_DISCONNECTOR21" transform="translate(111.0,185.0)">
                <path class="sld-sw-closed" d="M0,0 8,8 M8,0 0,8"/>
                <path class="sld-sw-open" d="M8,0 0,8"/>
            </g>
            <g class="sld-node sld-hidden-node sld-fictitious sld-disconnected" id="idINTERNAL_95_VL_95_VLsw_95_DISCONNECTOR21" transform="translate(136.0,185.0)">
                <circle cx="4" cy="4" r="4"/>
            </g>
            <g class="sld-bus-connection sld-fictitious sld-disconnected" id="idBUSCO_95_VLsw_95_DISCONNECTOR21" transform="translate(136.0,185.0)">
                <circle cx="4" cy="4" r="4"/>
            </g>
        </g>
        <g class="sld-intern-cell sld-cell-shape-flat" id="idINTERN_32_3">
            <g class="sld-wire sld-disconnected" id="_95_VL_95_VLbbs31_95_BUSCO_95_VLsw_95_DISCONNECTOR31">
                <polyline points="77.5,214.0,90.0,214.0"/>
            </g>
            <g class="sld-wire sld-disconnected" id="_95_VL_95_INTERNAL_95_VL_95_VLsw_95_DISCONNECTOR31_95_VLsw_95_DISCONNECTOR31">
                <polyline points="90.0,214.0,115.0,214.0"/>
            </g>
            <g class="sld-wire sld-disconnected" id="_95_VL_95_VLsw_95_DISCONNECTOR31_95_INTERNAL_95_VL_95_VLsw_95_DISCONNECTOR31">
                <polyline points="115.0,214.0,140.0,214.0"/>
            </g>
            <g class="sld-wire sld-disconnected" id="_95_VL_95_BUSCO_95_VLsw_95_DISCONNECTOR31_95_VLbbs32">
                <polyline points="140.0,214.0,152.5,214.0"/>
            </g>
            <g class="sld-bus-connection sld-fictitious sld-disconnected" id="idBUSCO_95_VLsw_95_DISCONNECTOR31" transform="translate(86.0,210.0)">
                <circle cx="4" cy="4" r="4"/>
            </g>
            <g class="sld-node sld-hidden-node sld-fictitious sld-disconnected" id="idINTERNAL_95_VL_95_VLsw_95_DISCONNECTOR31" transform="translate(86.0,210.0)">
                <circle cx="4" cy="4" r="4"/>
            </g>
            <g class="sld-disconnector sld-closed sld-disconnected" id="idVLsw_95_DISCONNECTOR31" transform="translate(111.0,210.0)">
                <path class="sld-sw-closed" d="M0,0 8,8 M8,0 0,8"/>
                <path class="sld-sw-open" d="M8,0 0,8"/>
            </g>
            <g class="sld-node sld-hidden-node sld-fictitious sld-disconnected" id="idINTERNAL_95_VL_95_VLsw_95_DISCONNECTOR31" transform="translate(136.0,210.0)">
                <circle cx="4" cy="4" r="4"/>
            </g>
            <g class="sld-bus-connection sld-fictitious sld-disconnected" id="idBUSCO_95_VLsw_95_DISCONNECTOR31" transform="translate(136.0,210.0)">
                <circle cx="4" cy="4" r="4"/>
            </g>
        </g>
        <g class="sld-intern-cell sld-cell-shape-flat" id="idINTERN_32_4">
            <g class="sld-wire sld-disconnected" id="_95_VL_95_VLbbs41_95_BUSCO_95_VLsw_95_DISCONNECTOR41">
                <polyline points="77.5,239.0,90.0,239.0"/>
            </g>
            <g class="sld-wire sld-disconnected" id="_95_VL_95_INTERNAL_95_VL_95_VLsw_95_DISCONNECTOR41_95_VLsw_95_DISCONNECTOR41">
                <polyline points="90.0,239.0,115.0,239.0"/>
            </g>
            <g class="sld-wire sld-disconnected" id="_95_VL_95_VLsw_95_DISCONNECTOR41_95_INTERNAL_95_VL_95_VLsw_95_DISCONNECTOR41">
                <polyline points="115.0,239.0,140.0,239.0"/>
            </g>
            <g class="sld-wire sld-disconnected" id="_95_VL_95_BUSCO_95_VLsw_95_DISCONNECTOR41_95_VLbbs42">
                <polyline points="140.0,239.0,152.5,239.0"/>
            </g>
            <g class="sld-bus-connection sld-fictitious sld-disconnected" id="idBUSCO_95_VLsw_95_DISCONNECTOR41" transform="translate(86.0,235.0)">
                <circle cx="4" cy="4" r="4"/>
            </g>
            <g class="sld-node sld-hidden-node sld-fictitious sld-disconnected" id="idINTERNAL_95_VL_95_VLsw_95_DISCONNECTOR41" transform="translate(86.0,235.0)">
                <circle cx="4" cy="4" r="4"/>
            </g>
            <g class="sld-disconnector sld-closed sld-disconnected" id="idVLsw_95_DISCONNECTOR41" transform="translate(111.0,235.0)">
                <path class="sld-sw-closed" d="M0,0 8,8 M8,0 0,8"/>
                <path class="sld-sw-open" d="M8,0 0,8"/>
            </g>
            <g class="sld-node sld-hidden-node sld-fictitious sld-disconnected" id="idINTERNAL_95_VL_95_VLsw_95_DISCONNECTOR41" transform="translate(136.0,235.0)">
                <circle cx="4" cy="4" r="4"/>
            </g>
            <g class="sld-bus-connection sld-fictitious sld-disconnected" id="idBUSCO_95_VLsw_95_DISCONNECTOR41" transform="translate(136.0,235.0)">
                <circle cx="4" cy="4" r="4"/>
            </g>
        </g>
        <g class="sld-intern-cell sld-cell-shape-flat" id="idINTERN_32_5">
            <g class="sld-wire sld-disconnected" id="_95_VL_95_VLbbs12_95_VLsw_95_DISCONNECTOR12_95_1">
                <polyline points="177.5,164.0,190.0,164.0"/>
            </g>
            <g class="sld-wire sld-disconnected" id="_95_VL_95_INTERNAL_95_VL_95_VLsw_95_BREAKER12_95_VLsw_95_BREAKER12">
                <polyline points="190.0,164.0,205.0,164.0"/>
            </g>
            <g class="sld-wire sld-disconnected" id="_95_VL_95_VLsw_95_BREAKER12_95_INTERNAL_95_VL_95_VLsw_95_BREAKER12">
                <polyline points="225.0,164.0,240.0,164.0"/>
            </g>
            <g class="sld-wire sld-disconnected" id="_95_VL_95_VLsw_95_DISCONNECTOR12_95_2_95_VLbbs13">
                <polyline points="240.0,164.0,252.5,164.0"/>
            </g>
            <g class="sld-disconnector sld-closed sld-disconnected" id="idVLsw_95_DISCONNECTOR12_95_1" transform="translate(186.0,160.0)">
                <path class="sld-sw-closed" d="M0,0 8,8 M8,0 0,8"/>
                <path class="sld-sw-open" d="M8,0 0,8"/>
            </g>
            <g class="sld-node sld-hidden-node sld-fictitious sld-disconnected" id="idINTERNAL_95_VL_95_VLsw_95_BREAKER12" transform="translate(186.0,160.0)">
                <circle cx="4" cy="4" r="4"/>
            </g>
            <g class="sld-breaker sld-closed sld-disconnected" id="idVLsw_95_BREAKER12" transform="translate(205.0,154.0)">
                <path class="sld-sw-closed" d="M1,1 V19 H19 V1z M10,5 V15" transform="rotate(90.0,10.0,10.0)"/>
                <path class="sld-sw-open" d="M1,1 V19 H19 V1z M5,10 H15" transform="rotate(90.0,10.0,10.0)"/>
            </g>
            <g class="sld-node sld-hidden-node sld-fictitious sld-disconnected" id="idINTERNAL_95_VL_95_VLsw_95_BREAKER12" transform="translate(236.0,160.0)">
                <circle cx="4" cy="4" r="4"/>
            </g>
            <g class="sld-disconnector sld-closed sld-disconnected" id="idVLsw_95_DISCONNECTOR12_95_2" transform="translate(236.0,160.0)">
                <path class="sld-sw-closed" d="M0,0 8,8 M8,0 0,8"/>
                <path class="sld-sw-open" d="M8,0 0,8"/>
            </g>
        </g>
        <g class="sld-intern-cell sld-cell-shape-flat" id="idINTERN_32_6">
            <g class="sld-wire sld-disconnected" id="_95_VL_95_VLbbs22_95_VLsw_95_DISCONNECTOR22_95_1">
                <polyline points="177.5,189.0,190.0,189.0"/>
            </g>
            <g class="sld-wire sld-disconnected" id="_95_VL_95_INTERNAL_95_VL_95_VLsw_95_BREAKER22_95_VLsw_95_BREAKER22">
                <polyline points="190.0,189.0,205.0,189.0"/>
            </g>
            <g class="sld-wire sld-disconnected" id="_95_VL_95_VLsw_95_BREAKER22_95_INTERNAL_95_VL_95_VLsw_95_BREAKER22">
                <polyline points="225.0,189.0,240.0,189.0"/>
            </g>
            <g class="sld-wire sld-disconnected" id="_95_VL_95_VLsw_95_DISCONNECTOR22_95_2_95_VLbbs23">
                <polyline points="240.0,189.0,252.5,189.0"/>
            </g>
            <g class="sld-disconnector sld-closed sld-disconnected" id="idVLsw_95_DISCONNECTOR22_95_1" transform="translate(186.0,185.0)">
                <path class="sld-sw-closed" d="M0,0 8,8 M8,0 0,8"/>
                <path class="sld-sw-open" d="M8,0 0,8"/>
            </g>
            <g class="sld-node sld-hidden-node sld-fictitious sld-disconnected" id="idINTERNAL_95_VL_95_VLsw_95_BREAKER22" transform="translate(186.0,185.0)">
                <circle cx="4" cy="4" r="4"/>
            </g>
            <g class="sld-breaker sld-closed sld-disconnected" id="idVLsw_95_BREAKER22" transform="translate(205.0,179.0)">
                <path class="sld-sw-closed" d="M1,1 V19 H19 V1z M10,5 V15" transform="rotate(90.0,10.0,10.0)"/>
                <path class="sld-sw-open" d="M1,1 V19 H19 V1z M5,10 H15" transform="rotate(90.0,10.0,10.0)"/>
            </g>
            <g class="sld-node sld-hidden-node sld-fictitious sld-disconnected" id="idINTERNAL_95_VL_95_VLsw_95_BREAKER22" transform="translate(236.0,185.0)">
                <circle cx="4" cy="4" r="4"/>
            </g>
            <g class="sld-disconnector sld-closed sld-disconnected" id="idVLsw_95_DISCONNECTOR22_95_2" transform="translate(236.0,185.0)">
                <path class="sld-sw-closed" d="M0,0 8,8 M8,0 0,8"/>
                <path class="sld-sw-open" d="M8,0 0,8"/>
            </g>
        </g>
        <g class="sld-intern-cell sld-cell-shape-flat" id="idINTERN_32_7">
            <g class="sld-wire sld-disconnected" id="_95_VL_95_VLbbs32_95_VLsw_95_DISCONNECTOR32_95_1">
                <polyline points="177.5,214.0,190.0,214.0"/>
            </g>
            <g class="sld-wire sld-disconnected" id="_95_VL_95_INTERNAL_95_VL_95_VLsw_95_BREAKER32_95_VLsw_95_BREAKER32">
                <polyline points="190.0,214.0,205.0,214.0"/>
            </g>
            <g class="sld-wire sld-disconnected" id="_95_VL_95_VLsw_95_BREAKER32_95_INTERNAL_95_VL_95_VLsw_95_BREAKER32">
                <polyline points="225.0,214.0,240.0,214.0"/>
            </g>
            <g class="sld-wire sld-disconnected" id="_95_VL_95_VLsw_95_DISCONNECTOR32_95_2_95_VLbbs33">
                <polyline points="240.0,214.0,252.5,214.0"/>
            </g>
            <g class="sld-disconnector sld-closed sld-disconnected" id="idVLsw_95_DISCONNECTOR32_95_1" transform="translate(186.0,210.0)">
                <path class="sld-sw-closed" d="M0,0 8,8 M8,0 0,8"/>
                <path class="sld-sw-open" d="M8,0 0,8"/>
            </g>
            <g class="sld-node sld-hidden-node sld-fictitious sld-disconnected" id="idINTERNAL_95_VL_95_VLsw_95_BREAKER32" transform="translate(186.0,210.0)">
                <circle cx="4" cy="4" r="4"/>
            </g>
            <g class="sld-breaker sld-closed sld-disconnected" id="idVLsw_95_BREAKER32" transform="translate(205.0,204.0)">
                <path class="sld-sw-closed" d="M1,1 V19 H19 V1z M10,5 V15" transform="rotate(90.0,10.0,10.0)"/>
                <path class="sld-sw-open" d="M1,1 V19 H19 V1z M5,10 H15" transform="rotate(90.0,10.0,10.0)"/>
            </g>
            <g class="sld-node sld-hidden-node sld-fictitious sld-disconnected" id="idINTERNAL_95_VL_95_VLsw_95_BREAKER32" transform="translate(236.0,210.0)">
                <circle cx="4" cy="4" r="4"/>
            </g>
            <g class="sld-disconnector sld-closed sld-disconnected" id="idVLsw_95_DISCONNECTOR32_95_2" transform="translate(236.0,210.0)">
                <path class="sld-sw-closed" d="M0,0 8,8 M8,0 0,8"/>
                <path class="sld-sw-open" d="M8,0 0,8"/>
            </g>
        </g>
        <g class="sld-intern-cell sld-cell-shape-flat" id="idINTERN_32_8">
            <g class="sld-wire sld-disconnected" id="_95_VL_95_VLbbs42_95_VLsw_95_DISCONNECTOR42_95_1">
                <polyline points="177.5,239.0,190.0,239.0"/>
            </g>
            <g class="sld-wire sld-disconnected" id="_95_VL_95_INTERNAL_95_VL_95_VLsw_95_BREAKER42_95_VLsw_95_BREAKER42">
                <polyline points="190.0,239.0,205.0,239.0"/>
            </g>
            <g class="sld-wire sld-disconnected" id="_95_VL_95_VLsw_95_BREAKER42_95_INTERNAL_95_VL_95_VLsw_95_BREAKER42">
                <polyline points="225.0,239.0,240.0,239.0"/>
            </g>
            <g class="sld-wire sld-disconnected" id="_95_VL_95_VLsw_95_DISCONNECTOR42_95_2_95_VLbbs43">
                <polyline points="240.0,239.0,252.5,239.0"/>
            </g>
            <g class="sld-disconnector sld-closed sld-disconnected" id="idVLsw_95_DISCONNECTOR42_95_1" transform="translate(186.0,235.0)">
                <path class="sld-sw-closed" d="M0,0 8,8 M8,0 0,8"/>
                <path class="sld-sw-open" d="M8,0 0,8"/>
            </g>
            <g class="sld-node sld-hidden-node sld-fictitious sld-disconnected" id="idINTERNAL_95_VL_95_VLsw_95_BREAKER42" transform="translate(186.0,235.0)">
                <circle cx="4" cy="4" r="4"/>
            </g>
            <g class="sld-breaker sld-closed sld-disconnected" id="idVLsw_95_BREAKER42" transform="translate(205.0,229.0)">
                <path class="sld-sw-closed" d="M1,1 V19 H19 V1z M10,5 V15" transform="rotate(90.0,10.0,10.0)"/>
                <path class="sld-sw-open" d="M1,1 V19 H19 V1z M5,10 H15" transform="rotate(90.0,10.0,10.0)"/>
            </g>
            <g class="sld-node sld-hidden-node sld-fictitious sld-disconnected" id="idINTERNAL_95_VL_95_VLsw_95_BREAKER42" transform="translate(236.0,235.0)">
                <circle cx="4" cy="4" r="4"/>
            </g>
            <g class="sld-disconnector sld-closed sld-disconnected" id="idVLsw_95_DISCONNECTOR42_95_2" transform="translate(236.0,235.0)">
                <path class="sld-sw-closed" d="M0,0 8,8 M8,0 0,8"/>
                <path class="sld-sw-open" d="M8,0 0,8"/>
            </g>
        </g>
        <g class="sld-intern-cell sld-cell-shape-vertical" id="idINTERN_32_9">
            <g class="sld-wire sld-disconnected" id="_95_VL_95_NEW_95_DISCONNECTOR8_95_INTERNAL_95_VL_95_22">
                <polyline points="315.0,164.0,315.0,124.0"/>
            </g>
            <g class="sld-wire sld-disconnected" id="_95_VL_95_INTERNAL_95_VL_95_22_95_NEW_95_BREAKER_35_0">
                <polyline points="315.0,124.0,300.0,124.0"/>
            </g>
            <g class="sld-wire sld-disconnected" id="_95_VL_95_INTERNAL_95_VL_95_22_95_NEW_95_DISCONNECTOR922">
                <polyline points="315.0,124.0,315.0,189.0"/>
            </g>
            <g class="sld-wire sld-disconnected" id="_95_VL_95_INTERNAL_95_VL_95_22_95_NEW_95_DISCONNECTOR1022">
                <polyline points="315.0,124.0,315.0,214.0"/>
            </g>
            <g class="sld-wire sld-disconnected" id="_95_VL_95_INTERNAL_95_VL_95_22_95_NEW_95_DISCONNECTOR1122">
                <polyline points="315.0,124.0,315.0,239.0"/>
            </g>
            <g class="sld-wire sld-disconnected" id="_95_VL_95_NEW_95_BREAKER_35_0_95_INTERNAL_95_VL_95_23">
                <polyline points="280.0,124.0,265.0,124.0"/>
            </g>
            <g class="sld-wire sld-disconnected" id="_95_VL_95_NEW_95_DISCONNECTOR9_95_INTERNAL_95_VL_95_23">
                <polyline points="265.0,189.0,265.0,124.0"/>
            </g>
            <g class="sld-wire sld-disconnected" id="_95_VL_95_INTERNAL_95_VL_95_23_95_NEW_95_DISCONNECTOR823">
                <polyline points="265.0,124.0,265.0,164.0"/>
            </g>
            <g class="sld-wire sld-disconnected" id="_95_VL_95_INTERNAL_95_VL_95_23_95_NEW_95_DISCONNECTOR1023">
                <polyline points="265.0,124.0,265.0,214.0"/>
            </g>
            <g class="sld-wire sld-disconnected" id="_95_VL_95_INTERNAL_95_VL_95_23_95_NEW_95_DISCONNECTOR1123">
                <polyline points="265.0,124.0,265.0,239.0"/>
            </g>
            <g class="sld-disconnector sld-closed sld-disconnected" id="idNEW_95_DISCONNECTOR8" transform="translate(311.0,160.0)">
                <path class="sld-sw-closed" d="M0,0 8,8 M8,0 0,8"/>
                <path class="sld-sw-open" d="M8,0 0,8"/>
            </g>
            <g class="sld-node sld-hidden-node sld-fictitious sld-disconnected" id="idINTERNAL_95_VL_95_22" transform="translate(311.0,120.0)">
                <circle cx="4" cy="4" r="4"/>
            </g>
            <g class="sld-breaker sld-closed sld-disconnected" id="idNEW_95_BREAKER_35_0" transform="translate(280.0,114.0)">
                <path class="sld-sw-closed" d="M1,1 V19 H19 V1z M10,5 V15" transform="rotate(90.0,10.0,10.0)"/>
                <path class="sld-sw-open" d="M1,1 V19 H19 V1z M5,10 H15" transform="rotate(90.0,10.0,10.0)"/>
            </g>
            <g class="sld-node sld-hidden-node sld-fictitious sld-disconnected" id="idINTERNAL_95_VL_95_23" transform="translate(261.0,120.0)">
                <circle cx="4" cy="4" r="4"/>
            </g>
            <g class="sld-disconnector sld-closed sld-disconnected" id="idNEW_95_DISCONNECTOR9" transform="translate(261.0,185.0)">
                <path class="sld-sw-closed" d="M0,0 8,8 M8,0 0,8"/>
                <path class="sld-sw-open" d="M8,0 0,8"/>
            </g>
            <g class="sld-disconnector sld-open sld-disconnected" id="idNEW_95_DISCONNECTOR823" transform="translate(261.0,160.0)">
                <path class="sld-sw-closed" d="M0,0 8,8 M8,0 0,8"/>
                <path class="sld-sw-open" d="M8,0 0,8"/>
            </g>
            <g class="sld-disconnector sld-open sld-disconnected" id="idNEW_95_DISCONNECTOR1023" transform="translate(261.0,210.0)">
                <path class="sld-sw-closed" d="M0,0 8,8 M8,0 0,8"/>
                <path class="sld-sw-open" d="M8,0 0,8"/>
            </g>
            <g class="sld-disconnector sld-open sld-disconnected" id="idNEW_95_DISCONNECTOR1123" transform="translate(261.0,235.0)">
                <path class="sld-sw-closed" d="M0,0 8,8 M8,0 0,8"/>
                <path class="sld-sw-open" d="M8,0 0,8"/>
            </g>
            <g class="sld-disconnector sld-open sld-disconnected" id="idNEW_95_DISCONNECTOR922" transform="translate(311.0,185.0)">
                <path class="sld-sw-closed" d="M0,0 8,8 M8,0 0,8"/>
                <path class="sld-sw-open" d="M8,0 0,8"/>
            </g>
            <g class="sld-disconnector sld-open sld-disconnected" id="idNEW_95_DISCONNECTOR1022" transform="translate(311.0,210.0)">
                <path class="sld-sw-closed" d="M0,0 8,8 M8,0 0,8"/>
                <path class="sld-sw-open" d="M8,0 0,8"/>
            </g>
            <g class="sld-disconnector sld-open sld-disconnected" id="idNEW_95_DISCONNECTOR1122" transform="translate(311.0,235.0)">
                <path class="sld-sw-closed" d="M0,0 8,8 M8,0 0,8"/>
                <path class="sld-sw-open" d="M8,0 0,8"/>
            </g>
        </g>
    </g>
</svg>
